<mxfile host="app.diagrams.net" modified="2024-02-11T01:03:14.355Z" agent="Mozilla/5.0 (Windows NT 10.0; Win64; x64) AppleWebKit/537.36 (KHTML, like Gecko) Chrome/120.0.0.0 Safari/537.36" etag="MAzg10qtJfTbS-GfLSum" version="23.1.2" type="github">
  <diagram name="第 1 页" id="CL-UmEYnadEik9d4xOVo">
    <mxGraphModel dx="1728" dy="3428" grid="1" gridSize="10" guides="1" tooltips="1" connect="1" arrows="1" fold="1" page="1" pageScale="1" pageWidth="291" pageHeight="413" math="0" shadow="0">
      <root>
        <mxCell id="0" />
        <mxCell id="1" parent="0" />
        <mxCell id="3XlZ-Ykn8DyyXwoKQ8Sx-4" value="" style="edgeStyle=orthogonalEdgeStyle;rounded=0;orthogonalLoop=1;jettySize=auto;html=1;" parent="1" source="rH0048MOvRVm2mWPWrwe-2" target="3XlZ-Ykn8DyyXwoKQ8Sx-1" edge="1">
          <mxGeometry relative="1" as="geometry" />
        </mxCell>
        <mxCell id="rH0048MOvRVm2mWPWrwe-2" value="Display a confirmation message that current progression in this difficulty level was saved" style="rounded=1;whiteSpace=wrap;html=1;shadow=0;comic=0;labelBackgroundColor=none;strokeWidth=1;fontFamily=Verdana;fontSize=12;align=center;arcSize=50;" parent="1" vertex="1">
          <mxGeometry x="152.88" y="-1870" width="236.16" height="70" as="geometry" />
        </mxCell>
        <mxCell id="rH0048MOvRVm2mWPWrwe-3" value="" style="edgeStyle=orthogonalEdgeStyle;rounded=0;orthogonalLoop=1;jettySize=auto;html=1;entryX=0.5;entryY=0;entryDx=0;entryDy=0;" parent="1" source="rH0048MOvRVm2mWPWrwe-4" target="rH0048MOvRVm2mWPWrwe-7" edge="1">
          <mxGeometry relative="1" as="geometry">
            <mxPoint x="250.81" y="-2200" as="targetPoint" />
          </mxGeometry>
        </mxCell>
        <mxCell id="rH0048MOvRVm2mWPWrwe-4" value="" style="ellipse;whiteSpace=wrap;html=1;rounded=0;shadow=0;comic=0;labelBackgroundColor=none;strokeWidth=1;fillColor=#000000;fontFamily=Verdana;fontSize=12;align=center;" parent="1" vertex="1">
          <mxGeometry x="250.93" y="-2450" width="40" height="40" as="geometry" />
        </mxCell>
        <mxCell id="rH0048MOvRVm2mWPWrwe-5" value="" style="shape=mxgraph.bpmn.shape;html=1;verticalLabelPosition=bottom;labelBackgroundColor=#ffffff;verticalAlign=top;perimeter=ellipsePerimeter;outline=end;symbol=terminate;rounded=0;shadow=0;comic=0;strokeWidth=1;fontFamily=Verdana;fontSize=12;align=center;" parent="1" vertex="1">
          <mxGeometry x="250.92000000000002" y="-1710" width="40" height="40" as="geometry" />
        </mxCell>
        <mxCell id="rH0048MOvRVm2mWPWrwe-17" value="" style="edgeStyle=orthogonalEdgeStyle;rounded=0;orthogonalLoop=1;jettySize=auto;html=1;" parent="1" source="rH0048MOvRVm2mWPWrwe-7" target="rH0048MOvRVm2mWPWrwe-15" edge="1">
          <mxGeometry relative="1" as="geometry" />
        </mxCell>
        <mxCell id="rH0048MOvRVm2mWPWrwe-7" value="Play a puzzle" style="rounded=1;whiteSpace=wrap;html=1;shadow=0;comic=0;labelBackgroundColor=none;strokeWidth=1;fontFamily=Verdana;fontSize=12;align=center;arcSize=50;" parent="1" vertex="1">
          <mxGeometry x="193.31" y="-2380" width="155.25" height="60" as="geometry" />
        </mxCell>
        <mxCell id="rH0048MOvRVm2mWPWrwe-20" value="" style="edgeStyle=orthogonalEdgeStyle;rounded=0;orthogonalLoop=1;jettySize=auto;html=1;" parent="1" source="rH0048MOvRVm2mWPWrwe-15" target="rH0048MOvRVm2mWPWrwe-19" edge="1">
          <mxGeometry relative="1" as="geometry" />
        </mxCell>
        <mxCell id="rH0048MOvRVm2mWPWrwe-15" value="Choose the option to exit the current puzzle" style="rounded=1;whiteSpace=wrap;html=1;shadow=0;comic=0;labelBackgroundColor=none;strokeWidth=1;fontFamily=Verdana;fontSize=12;align=center;arcSize=50;" parent="1" vertex="1">
          <mxGeometry x="183.31" y="-2290" width="175.27" height="60" as="geometry" />
        </mxCell>
        <mxCell id="rH0048MOvRVm2mWPWrwe-24" value="" style="edgeStyle=orthogonalEdgeStyle;rounded=0;orthogonalLoop=1;jettySize=auto;html=1;" parent="1" source="rH0048MOvRVm2mWPWrwe-18" target="rH0048MOvRVm2mWPWrwe-2" edge="1">
          <mxGeometry relative="1" as="geometry" />
        </mxCell>
        <mxCell id="rH0048MOvRVm2mWPWrwe-28" value="Yes" style="edgeLabel;html=1;align=center;verticalAlign=middle;resizable=0;points=[];" parent="rH0048MOvRVm2mWPWrwe-24" vertex="1" connectable="0">
          <mxGeometry x="-0.2497" y="1" relative="1" as="geometry">
            <mxPoint x="19" as="offset" />
          </mxGeometry>
        </mxCell>
        <mxCell id="rH0048MOvRVm2mWPWrwe-26" value="" style="edgeStyle=orthogonalEdgeStyle;rounded=0;orthogonalLoop=1;jettySize=auto;html=1;entryX=1;entryY=0.5;entryDx=0;entryDy=0;" parent="1" source="rH0048MOvRVm2mWPWrwe-18" target="rH0048MOvRVm2mWPWrwe-7" edge="1">
          <mxGeometry relative="1" as="geometry">
            <mxPoint x="358.56" y="-2350" as="targetPoint" />
            <Array as="points">
              <mxPoint x="448.56" y="-1940" />
              <mxPoint x="448.56" y="-2350" />
            </Array>
          </mxGeometry>
        </mxCell>
        <mxCell id="rH0048MOvRVm2mWPWrwe-27" value="No" style="edgeLabel;html=1;align=center;verticalAlign=middle;resizable=0;points=[];" parent="rH0048MOvRVm2mWPWrwe-26" vertex="1" connectable="0">
          <mxGeometry x="-0.8607" y="4" relative="1" as="geometry">
            <mxPoint x="-2" y="-6" as="offset" />
          </mxGeometry>
        </mxCell>
        <mxCell id="rH0048MOvRVm2mWPWrwe-18" value="" style="rhombus;whiteSpace=wrap;html=1;" parent="1" vertex="1">
          <mxGeometry x="230.95" y="-1980" width="80" height="80" as="geometry" />
        </mxCell>
        <mxCell id="rH0048MOvRVm2mWPWrwe-22" value="" style="edgeStyle=orthogonalEdgeStyle;rounded=0;orthogonalLoop=1;jettySize=auto;html=1;" parent="1" source="rH0048MOvRVm2mWPWrwe-19" target="rH0048MOvRVm2mWPWrwe-21" edge="1">
          <mxGeometry relative="1" as="geometry" />
        </mxCell>
        <mxCell id="rH0048MOvRVm2mWPWrwe-19" value="Display a message with a confirmation request that tells the player what will be saved." style="rounded=1;whiteSpace=wrap;html=1;shadow=0;comic=0;labelBackgroundColor=none;strokeWidth=1;fontFamily=Verdana;fontSize=12;align=center;arcSize=50;" parent="1" vertex="1">
          <mxGeometry x="120" y="-2190" width="301.91" height="60" as="geometry" />
        </mxCell>
        <mxCell id="rH0048MOvRVm2mWPWrwe-23" value="" style="edgeStyle=orthogonalEdgeStyle;rounded=0;orthogonalLoop=1;jettySize=auto;html=1;" parent="1" source="rH0048MOvRVm2mWPWrwe-21" target="rH0048MOvRVm2mWPWrwe-18" edge="1">
          <mxGeometry relative="1" as="geometry" />
        </mxCell>
        <mxCell id="rH0048MOvRVm2mWPWrwe-21" value="Confirm the exit" style="rounded=1;whiteSpace=wrap;html=1;shadow=0;comic=0;labelBackgroundColor=none;strokeWidth=1;fontFamily=Verdana;fontSize=12;align=center;arcSize=50;" parent="1" vertex="1">
          <mxGeometry x="208.32" y="-2050" width="125.25" height="30" as="geometry" />
        </mxCell>
        <mxCell id="3XlZ-Ykn8DyyXwoKQ8Sx-5" value="" style="edgeStyle=orthogonalEdgeStyle;rounded=0;orthogonalLoop=1;jettySize=auto;html=1;" parent="1" source="3XlZ-Ykn8DyyXwoKQ8Sx-1" target="rH0048MOvRVm2mWPWrwe-5" edge="1">
          <mxGeometry relative="1" as="geometry" />
        </mxCell>
        <mxCell id="3XlZ-Ykn8DyyXwoKQ8Sx-1" value="Return to main menu" style="rounded=1;whiteSpace=wrap;html=1;shadow=0;comic=0;labelBackgroundColor=none;strokeWidth=1;fontFamily=Verdana;fontSize=12;align=center;arcSize=50;" parent="1" vertex="1">
          <mxGeometry x="199.67000000000002" y="-1780" width="142.5" height="50" as="geometry" />
        </mxCell>
      </root>
    </mxGraphModel>
  </diagram>
</mxfile>
